<svg width="26" height="24" viewBox="0 0 26 24" fill="none" xmlns="http://www.w3.org/2000/svg">
<path d="M17.7029 0.0113083C17.0109 0.00797718 16.3318 0.186103 15.7429 0.525395C15.1541 0.864688 14.6792 1.35151 14.3723 1.93041L12.8516 4.76907L11.3309 1.93041C10.9586 1.22821 10.3425 0.664348 9.58298 0.330664C8.82348 -0.00302084 7.96531 -0.0868708 7.14823 0.0927703C6.33116 0.272411 5.60332 0.704959 5.08326 1.31997C4.56319 1.93497 4.28155 2.6962 4.2842 3.47968C4.2842 4.68054 4.79531 5.83222 5.70511 6.68136C6.6149 7.53051 7.84885 8.00755 9.13549 8.00755H16.5677C17.2048 8.00755 17.8356 7.89043 18.4242 7.66288C19.0128 7.43534 19.5476 7.10182 19.9981 6.68136C20.4486 6.26091 20.8059 5.76176 21.0497 5.21242C21.2935 4.66307 21.419 4.07429 21.419 3.47968C21.4162 2.56062 21.0237 1.67996 20.3274 1.03008C19.6312 0.380209 18.6876 0.0139455 17.7029 0.0113083ZM9.13549 6.00849C8.4169 6.00849 7.72774 5.74206 7.21962 5.26782C6.71151 4.79357 6.42605 4.15036 6.42605 3.47968C6.42284 3.14655 6.54102 2.8223 6.7612 2.5601C6.98138 2.2979 7.2905 2.11332 7.63784 2.03663C7.98519 1.95994 8.35014 1.9957 8.67286 2.13803C8.99557 2.28037 9.25688 2.52083 9.41393 2.81999L11.1167 6.00849H9.13549ZM16.5677 6.00849H14.5865L16.2893 2.81999C16.4463 2.52083 16.7076 2.28037 17.0303 2.13803C17.353 1.9957 17.718 1.95994 18.0654 2.03663C18.4127 2.11332 18.7218 2.2979 18.942 2.5601C19.1622 2.8223 19.2804 3.14655 19.2771 3.47968C19.2771 4.15036 18.9917 4.79357 18.4836 5.26782C17.9754 5.74206 17.2863 6.00849 16.5677 6.00849Z" fill="#E04B3B"/>
<path d="M3.21289 10.0066H22.4895V21.0014C22.4895 21.7967 22.151 22.5594 21.5485 23.1217C20.946 23.6841 20.1288 24 19.2768 24H6.42566C5.57358 24 4.7564 23.6841 4.15389 23.1217C3.55138 22.5594 3.21289 21.7967 3.21289 21.0014V10.0066Z" fill="#FFCE00"/>
<path d="M3.21289 11.5059H21.4186C21.7873 11.5058 22.1519 11.4343 22.4895 11.296V10.0066H3.21289V11.5059Z" fill="#E2B703"/>
<path d="M3.7486 6.00842H21.9543C23.7392 6.00842 24.6316 6.84136 24.6316 8.50725C24.6316 10.1731 23.7392 11.0061 21.9543 11.0061H3.7486C1.96373 11.0061 1.07129 10.1731 1.07129 8.50725C1.07129 6.84136 1.96373 6.00842 3.7486 6.00842Z" fill="#FFEC00"/>
<path d="M10.71 6.00842H14.9937V11.0061H10.71V6.00842Z" fill="#EF8C54"/>
<path d="M10.71 11.0061H14.9937V24H10.71V11.0061Z" fill="#F16A54"/>
<path d="M10.71 11.0061H14.9937V11.5059H10.71V11.0061Z" fill="#D34F42"/>
</svg>
