<svg width="26" height="24" viewBox="0 0 26 24" fill="none" xmlns="http://www.w3.org/2000/svg">
<g clip-path="url(#clip0_244_3192)">
<path d="M22.4843 1.63369H20.1965V1.57751C20.1965 0.512396 19.6595 0.00146484 18.7292 0.00146484H6.57245C5.76799 0.00146484 4.97842 0.0986513 4.95539 1.63819H2.6583C1.29938 1.63819 0 2.69993 0 4.54311V7.45533C0 8.42663 0.0893217 9.14654 0.486775 10.0987C1.20191 11.8037 2.86279 13.5056 5.46519 13.5969L5.45368 13.5329C6.4056 15.8766 8.61027 17.5181 11.1795 17.5181H11.3576V21.4024H7.71088C7.03422 21.4024 6.4834 21.983 6.4834 22.6984V22.7043C6.4834 23.4198 7.03422 24.0003 7.71088 24.0003H17.4514C18.1292 24.0003 18.68 23.4198 18.68 22.7043V22.6984C18.68 21.983 18.1292 21.4024 17.4514 21.4024H13.8022V17.5122H13.969C16.5268 17.5122 18.7255 15.885 19.6833 13.5581L19.6777 13.5913C22.2799 13.4997 23.9405 11.797 24.6559 10.0928C25.0536 9.1443 25.1426 8.41989 25.1426 7.44943V4.53524C25.1426 2.69516 23.8455 1.63369 22.4843 1.63369ZM2.09035 9.93527C1.38055 8.71454 1.48813 6.78092 1.48813 6.33628V4.51698C1.48813 3.77882 1.9544 3.21873 2.59426 3.21873H4.95202V10.9431C4.95176 11.2901 4.97777 11.6367 5.02982 11.9798C4.54642 11.9158 3.05042 11.5911 2.09035 9.93639V9.93527ZM23.0526 9.93527C22.0959 11.5832 20.6114 11.9124 20.1176 11.9787C20.1705 11.6364 20.1969 11.2906 20.1965 10.9442V3.2221H22.5492C23.1894 3.2221 23.6556 3.78106 23.6556 4.52035V6.33993C23.6556 6.78092 23.7629 8.71229 23.0534 9.93527H23.0526Z" fill="#FFD668"/>
<path d="M10.312 12.0471L12.5782 10.9419L14.8416 12.0471L14.5326 9.46553L16.239 7.56758L13.7899 7.07744L12.5782 4.79749L11.3651 7.07744L8.91602 7.56758L10.6224 9.46553L10.312 12.0471Z" fill="#FF5151"/>
</g>
<defs>
<clipPath id="clip0_244_3192">
<rect width="25.125" height="24" fill="white"/>
</clipPath>
</defs>
</svg>
