<svg width="80" height="28" viewBox="0 0 80 28" fill="none" xmlns="http://www.w3.org/2000/svg">
<path d="M80 28L0 28L6.09999 8.42918C7.6628 3.41519 12.3045 0 17.5564 0L62.4436 0C67.6955 0 72.3372 3.41519 73.9 8.42917L80 28Z" fill="white"/>
<path fill-rule="evenodd" clip-rule="evenodd" d="M41.4863 19.1944C40.4121 20.2685 38.6614 20.2685 37.5872 19.1944L32.4216 14.0287C31.9575 13.5646 31.9575 12.8122 32.4216 12.3481C32.8857 11.884 33.6382 11.884 34.1023 12.3481L39.2679 17.5137C39.4139 17.6597 39.6597 17.6597 39.8056 17.5137L44.9713 12.3481C45.4354 11.884 46.1878 11.884 46.6519 12.3481C47.116 12.8122 47.116 13.5646 46.6519 14.0287L41.4863 19.1944Z" fill="#0F052F"/>
</svg>
