<svg width="28" height="23" viewBox="0 0 28 23" fill="none" xmlns="http://www.w3.org/2000/svg">
<path d="M22 22.2H4.69999C4.09999 22.2 3.59999 21.8 3.49999 21.2L1.49999 10.6C1.29999 9.7 2.19999 8.9 3.09999 9.3L6.09999 10.5C6.59999 10.7 7.09999 10.6 7.39999 10.2L12.5 4.6C12.6 4.5 12.8 4.4 12.9 4.3C13.1 4.2 13.2 4.2 13.4 4.2C13.6 4.2 13.7 4.2 13.9 4.3C14.1 4.4 14.2 4.5 14.3 4.6L19.3 10.2C19.6 10.6 20.2 10.7 20.6 10.5L23.6 9.3C24.5 9 25.4 9.7 25.2 10.7L23 21.2C22.9 21.5 22.8 21.7 22.6 21.9C22.5 22.1 22.3 22.2 22 22.2Z" fill="#FFD100"/>
<path d="M23.2 19.9C23.1 20.5 22.6 20.8 22 20.8H4.7C4.4 20.8 4.2 20.7 3.9 20.5C3.7 20.3 3.5 20.1 3.5 19.8L1.7 10.1C1.5 10.3 1.5 10.6 1.5 10.9L3.5 21.4C3.6 22 4.1 22.4 4.7 22.4H22C22.6 22.4 23.1 22 23.2 21.5L25.4 11.1C25.5 10.8 25.4 10.5 25.3 10.3L23.2 19.9Z" fill="#FFBC00"/>
<path d="M2.00001 13.5C2.30001 13.3 2.70001 13.2 3.10001 13.4L6.10001 14.6C6.60001 14.8 7.10001 14.7 7.40001 14.3L12.6 8.6C12.7 8.5 12.8 8.4 13 8.3C13.2 8.2 13.3 8.2 13.5 8.2C13.7 8.2 13.8 8.2 14 8.3C14.2 8.4 14.3 8.5 14.4 8.6L19.4 14.4C19.7 14.8 20.3 14.9 20.7 14.7L23.7 13.5C24.1 13.3 24.5 13.4 24.8 13.6L25.4 10.9C25.6 9.9 24.7 9.1 23.8 9.5L20.8 10.7C20.6 10.8 20.3 10.8 20.1 10.8C19.9 10.7 19.6 10.6 19.5 10.4L14.5 4.6C14.4 4.5 14.3 4.4 14.1 4.3C13.9 4.2 13.8 4.2 13.6 4.2C13.4 4.2 13.3 4.2 13.1 4.3C12.9 4.4 12.8 4.5 12.7 4.6L7.60001 10.4C7.40001 10.6 7.20001 10.7 7.00001 10.8C6.80001 10.9 6.50001 10.8 6.30001 10.7L3.30001 9.5C2.40001 9.1 1.50001 9.9 1.70001 10.9L2.00001 13.5Z" fill="#FFE000"/>
<path d="M14.6 11.1V19.6H12.9V13L10.9 13.6V12.3L14.4 11H14.6V11.1Z" fill="#2F2F2F"/>
<path fill-rule="evenodd" clip-rule="evenodd" d="M12.9 0.1C12.3 0.4 12 0.9 12 1.6C12 2.4 12.7 3.1 13.6 3.1C14.2 3.1 14.8 2.7 15 2.1C15.2 1.5 15.1 0.8 14.6 0.4C14.1 0 13.4 -0.1 12.9 0.1ZM0.2 6.9C0.1 7.1 0 7.3 0 7.5C0 7.8 0.1 8 0.3 8.2C0.6 8.5 0.8 8.6 1.1 8.6C1.3 8.6 1.6 8.5 1.7 8.4C1.9 8.3 2 8.1 2.1 7.9C2.2 7.7 2.2 7.5 2.2 7.3C2.2 7.1 2 6.9 1.9 6.7C1.7 6.5 1.5 6.4 1.3 6.4C1.1 6.4 0.9 6.4 0.7 6.5C0.5 6.6 0.3 6.7 0.2 6.9ZM26.3 6.4C25.7 6.4 25.2 6.9 25.2 7.5C25.2 7.8 25.3 8.1 25.5 8.3C25.6 8.4 25.7 8.5 25.9 8.5C26 8.5 26.1 8.6 26.3 8.6C26.9 8.6 27.4 8.1 27.4 7.5C27.4 7.2 27.3 6.9 27.1 6.7C26.8 6.5 26.6 6.4 26.3 6.4Z" fill="#FF9300"/>
</svg>
