<svg width="28" height="23" viewBox="0 0 28 23" fill="none" xmlns="http://www.w3.org/2000/svg">
<g clip-path="url(#clip0_17_33)">
<path d="M22.4 22.6L5.10001 22.8C4.50001 22.8 4.00001 22.4 3.90001 21.8L1.80001 11.3C1.60001 10.4 2.50001 9.6 3.40001 9.9L6.50001 11.1C7.00001 11.3 7.50001 11.1 7.80001 10.8L12.9 5.2C13 5.1 13.1 5 13.3 4.9C13.5 4.8 13.6 4.8 13.8 4.8C14 4.8 14.1 4.8 14.3 4.9C14.5 5 14.6 5.1 14.7 5.2L19.8 10.7C20 11 20.6 11.2 21 11L24 9.8C24.9 9.4 25.8 10.2 25.6 11.1L23.5 21.7C23.4 22 23.3 22.2 23.1 22.4C22.9 22.6 22.7 22.6 22.4 22.6Z" fill="#E0EAF9"/>
<path d="M23.6 20.2C23.5 20.8 23 21.2 22.4 21.2L5.1 21.4C4.8 21.4 4.6 21.3 4.3 21.1C4.1 21 4 20.7 3.9 20.4L1.9 10.7C1.8 11 1.7 11.2 1.8 11.5L3.9 22C4 22.6 4.5 22.9 5.1 22.9L22.4 22.7C23 22.7 23.5 22.3 23.6 21.7L25.7 11.2C25.8 10.9 25.7 10.6 25.6 10.4L23.6 20.2Z" fill="#C5D4E4"/>
<path d="M2.30001 13.8C2.60001 13.6 3.00001 13.5 3.40001 13.7L6.50001 14.9C7.00001 15.1 7.50001 14.9 7.80001 14.6L12.9 9C13 8.9 13.1 8.8 13.3 8.7C13.5 8.6 13.6 8.6 13.8 8.6C14 8.6 14.1 8.6 14.3 8.7C14.5 8.8 14.6 8.9 14.7 9L19.8 14.5C20.1 14.9 20.7 15 21.1 14.8L24.1 13.6C24.5 13.4 24.9 13.5 25.2 13.7L25.7 11.1C25.9 10.2 25 9.4 24.1 9.8L21.1 11C20.9 11.1 20.6 11.1 20.4 11.1C20.2 11 19.9 10.9 19.8 10.7L14.6 5C14.5 4.9 14.4 4.8 14.2 4.7C14 4.6 13.9 4.6 13.7 4.6C13.5 4.6 13.4 4.6 13.2 4.7C13.1 4.8 13 4.9 12.8 5L7.70001 10.6C7.50001 10.8 7.30001 10.9 7.10001 11C6.90001 11.1 6.60001 11 6.40001 11L3.40001 9.8C2.50001 9.5 1.60001 10.2 1.80001 11.1L2.30001 13.8Z" fill="#EBF3FF"/>
<path d="M16.7 19.2V20.5H10.9V19.4L13.7 16.5C14 16.2 14.2 15.9 14.4 15.7C14.6 15.5 14.7 15.3 14.7 15.1C14.8 14.9 14.8 14.7 14.8 14.6C14.8 14.3 14.8 14.1 14.7 13.9C14.6 13.7 14.5 13.6 14.3 13.5C14.1 13.4 13.9 13.3 13.7 13.3C13.4 13.3 13.2 13.4 13 13.5C12.8 13.6 12.7 13.8 12.6 14C12.5 14.2 12.5 14.5 12.5 14.8H10.8C10.8 14.3 10.9 13.8 11.2 13.4C11.4 13 11.8 12.6 12.2 12.4C12.6 12.1 13.2 12 13.8 12C14.4 12 14.9 12.1 15.3 12.3C15.7 12.5 16 12.8 16.2 13.1C16.4 13.5 16.5 13.9 16.5 14.4C16.5 14.7 16.5 15 16.4 15.2C16.3 15.5 16.2 15.7 16 16C15.8 16.3 15.6 16.5 15.4 16.8C15.2 17.1 14.9 17.3 14.6 17.6L13.1 19.3L16.7 19.2Z" fill="#2F2F2F"/>
<path fill-rule="evenodd" clip-rule="evenodd" d="M13.2 0.400003C12.6 0.700003 12.3 1.2 12.3 1.9C12.3 2.7 13 3.4 13.9 3.4C14.5 3.4 15.1 3 15.3 2.4C15.5 1.8 15.4 1.1 14.9 0.700003C14.4 0.300003 13.7 0.200003 13.2 0.400003ZM0.499988 7.2C0.399988 7.4 0.299988 7.6 0.299988 7.8C0.299988 8.1 0.399988 8.3 0.599988 8.5C0.799988 8.7 1.09999 8.8 1.39999 8.8C1.59999 8.8 1.79999 8.7 1.99999 8.6C2.19999 8.5 2.29999 8.3 2.39999 8.1C2.49999 8 2.49999 7.7 2.49999 7.5C2.49999 7.3 2.29999 7.1 2.19999 6.9C1.99999 6.8 1.79999 6.7 1.59999 6.7C1.39999 6.7 1.19999 6.7 0.999988 6.8C0.799988 6.9 0.599988 7 0.499988 7.2ZM26.6 6.7C26 6.7 25.5 7.2 25.5 7.8C25.5 8.1 25.6 8.4 25.8 8.6C25.9 8.7 26 8.8 26.2 8.8C26.3 8.9 26.5 8.9 26.6 8.9C27.2 8.9 27.7 8.4 27.7 7.8C27.7 7.5 27.6 7.2 27.4 7C27.1 6.8 26.9 6.7 26.6 6.7Z" fill="#C7D3E0"/>
</g>
<defs>
<clipPath id="clip0_17_33">
<rect width="28" height="23" fill="white"/>
</clipPath>
</defs>
</svg>
