<svg width="28" height="23" viewBox="0 0 28 23" fill="none" xmlns="http://www.w3.org/2000/svg">
<g clip-path="url(#clip0_17_49)">
<path d="M22.4 22.7H5.09999C4.49999 22.7 3.99999 22.3 3.89999 21.7L1.89999 11.1C1.69999 10.2 2.59999 9.4 3.49999 9.8L6.49999 11C6.99999 11.2 7.49999 11.1 7.79999 10.7L12.9 5.1C13 5 13.2 4.9 13.3 4.8C13.5 4.7 13.6 4.7 13.8 4.7C14 4.7 14.1 4.7 14.3 4.8C14.5 4.9 14.6 5 14.7 5.1L19.7 10.7C20 11.1 20.6 11.2 21 11L24 9.8C24.9 9.4 25.8 10.2 25.6 11.1L23.4 21.6C23.3 21.9 23.2 22.1 23 22.3C22.9 22.6 22.7 22.7 22.4 22.7Z" fill="#D9AC6F"/>
<path d="M23.6 20.3C23.5 20.9 23 21.2 22.4 21.3H5.10001C4.80001 21.3 4.60001 21.2 4.30001 21C4.10001 20.8 3.90001 20.6 3.90001 20.3L2.00001 10.6C1.80001 10.8 1.80001 11.1 1.90001 11.4L3.90001 21.8C4.00001 22.4 4.50001 22.8 5.10001 22.8L22.4 22.7C23 22.7 23.5 22.3 23.6 21.7L25.8 11.3C25.9 11 25.8 10.7 25.7 10.5L23.6 20.3Z" fill="#937449"/>
<path d="M2.40001 13.8C2.70001 13.6 3.10001 13.5 3.50001 13.7L6.60001 14.8C7.10001 15 7.60001 14.8 7.90001 14.5L12.9 8.90001C13 8.80001 13.1 8.70001 13.3 8.60001C13.5 8.50001 13.6 8.50001 13.8 8.50001C14 8.50001 14.1 8.50001 14.3 8.60001C14.5 8.70001 14.6 8.80001 14.7 8.90001L19.8 14.4C20.1 14.8 20.7 14.9 21.1 14.7L24.1 13.5C24.5 13.3 24.9 13.4 25.2 13.6L25.7 11C25.9 10.1 25 9.30001 24.1 9.70001L21.1 10.9C20.9 11 20.6 11 20.4 11C20.2 10.9 19.9 10.8 19.8 10.7L14.6 5.00001C14.5 4.90001 14.4 4.80001 14.2 4.70001C14 4.60001 13.9 4.60001 13.7 4.60001C13.5 4.60001 13.4 4.60001 13.2 4.70001C13.1 4.80001 13 4.90001 12.9 5.00001L7.90001 10.6C7.70001 10.8 7.50001 10.9 7.30001 11C7.10001 11.1 6.80001 11 6.60001 11L3.40001 9.80001C2.50001 9.50001 1.60001 10.2 1.80001 11.1L2.40001 13.8Z" fill="#FFD295"/>
<path fill-rule="evenodd" clip-rule="evenodd" d="M13.2 0.500005C12.6 0.800005 12.3 1.3 12.3 2C12.3 2.8 13 3.5 13.9 3.5C14.5 3.5 15.1 3.1 15.3 2.5C15.5 1.9 15.4 1.2 14.9 0.800005C14.4 0.400005 13.7 0.200005 13.2 0.500005ZM0.499988 7.3C0.399988 7.5 0.299988 7.7 0.299988 7.9C0.299988 8.2 0.399988 8.40001 0.599988 8.60001C0.899988 8.80001 1.09999 9 1.39999 8.9C1.59999 8.9 1.79999 8.8 1.99999 8.7C2.19999 8.6 2.29999 8.4 2.39999 8.2C2.49999 8 2.49999 7.8 2.49999 7.6C2.49999 7.4 2.29999 7.2 2.19999 7C1.99999 6.9 1.79999 6.8 1.59999 6.8C1.39999 6.8 1.19999 6.8 0.999988 6.9C0.799988 7 0.599988 7.1 0.499988 7.3ZM26.6 6.8C26 6.8 25.5 7.3 25.5 7.9C25.5 8.2 25.6 8.5 25.8 8.7C25.9 8.8 26 8.9 26.2 8.9C26.3 9 26.5 9 26.6 9C27.2 9 27.7 8.5 27.7 7.9C27.7 7.6 27.6 7.3 27.4 7.1C27.1 6.9 26.9 6.8 26.6 6.8Z" fill="#E1AF6B"/>
<path d="M12.6 15.8H13.5C13.8 15.8 14 15.8 14.2 15.7C14.4 15.6 14.5 15.5 14.6 15.3C14.7 15.1 14.7 14.9 14.7 14.7C14.7 14.5 14.7 14.3 14.6 14.1C14.5 13.9 14.4 13.8 14.2 13.7C14 13.6 13.8 13.6 13.5 13.6C13.3 13.6 13.1 13.6 12.9 13.7C12.7 13.8 12.6 13.9 12.5 14C12.4 14.1 12.3 14.3 12.3 14.5H10.6C10.6 14 10.7 13.6 11 13.3C11.3 13 11.6 12.7 12 12.5C12.4 12.3 12.9 12.2 13.4 12.2C14 12.2 14.5 12.3 14.9 12.5C15.3 12.7 15.7 13 15.9 13.3C16.1 13.7 16.3 14.1 16.3 14.6C16.3 14.9 16.2 15.1 16.1 15.4C16 15.6 15.8 15.9 15.6 16.1C15.4 16.3 15.1 16.5 14.8 16.6C14.5 16.7 14.1 16.8 13.7 16.8H12.5V15.8H12.6ZM12.6 17V16.1H13.8C14.3 16.1 14.7 16.2 15 16.3C15.4 16.4 15.6 16.6 15.9 16.8C16.1 17 16.3 17.2 16.4 17.5C16.5 17.8 16.6 18.1 16.6 18.4C16.6 18.8 16.5 19.2 16.4 19.5C16.2 19.8 16 20.1 15.8 20.3C15.5 20.5 15.2 20.7 14.8 20.8C14.4 20.9 14 21 13.6 21C13.2 21 12.9 21 12.5 20.9C12.2 20.8 11.8 20.6 11.6 20.4C11.3 20.2 11.1 19.9 10.9 19.6C10.7 19.3 10.7 18.9 10.7 18.5H12.4C12.4 18.7 12.5 18.9 12.6 19.1C12.7 19.3 12.9 19.4 13.1 19.5C13.3 19.6 13.5 19.6 13.8 19.6C14.1 19.6 14.3 19.6 14.5 19.5C14.7 19.4 14.8 19.3 14.9 19.1C15 18.9 15.1 18.7 15.1 18.5C15.1 18.2 15 17.9 14.9 17.7C14.8 17.5 14.6 17.4 14.4 17.3C14.2 17.2 13.9 17.2 13.6 17.2H12.6V17Z" fill="#2F2F2F"/>
</g>
<defs>
<clipPath id="clip0_17_49">
<rect width="28" height="23" fill="white"/>
</clipPath>
</defs>
</svg>
