<svg width="18" height="24" viewBox="0 0 18 24" fill="none" xmlns="http://www.w3.org/2000/svg">
<path d="M2.18107 0H15.5967C16.7901 0 17.7778 1.2 17.7778 2.65V21.35C17.7778 22.8 16.7901 24 15.5967 24H2.18107C0.987654 24 0 22.8 0 21.35V2.65C0 1.2 0.987654 0 2.18107 0Z" fill="#FF4040"/>
<path d="M17.7778 6.26314V7.82012C12.1399 10.3605 5.67901 10.4424 0 7.98401V6.34509L0.0823045 6.38606C5.67901 9.00834 12.0988 8.9264 17.6543 6.22217H17.7778V6.26314Z" fill="#E73939"/>
<path d="M8.8878 5.3335C11.3569 5.3335 13.3322 7.30881 13.3322 9.77794C13.3322 12.2471 11.3569 14.2224 8.8878 14.2224C6.41867 14.2224 4.44336 12.2471 4.44336 9.77794C4.44336 7.30881 6.41867 5.3335 8.8878 5.3335Z" fill="#FFDDA9"/>
<path d="M8.88759 6.22217C6.90396 6.22217 5.33203 7.7941 5.33203 9.77772C5.33203 11.7614 6.90396 13.3333 8.88759 13.3333C10.8712 13.3333 12.4431 11.7614 12.4431 9.77772C12.4431 7.7941 10.8712 6.22217 8.88759 6.22217Z" fill="#FFC895"/>
</svg>
