<svg width="24" height="24" viewBox="0 0 24 24" fill="none" xmlns="http://www.w3.org/2000/svg">
<path d="M20.1484 24H3.14844C1.49844 24 0.148438 22.6228 0.148438 20.9395V3.57071C0.148438 1.88739 1.49844 0.510132 3.14844 0.510132H20.1484C21.7984 0.510132 23.1484 1.88739 23.1484 3.57071V20.9395C23.1484 22.6228 21.7984 24 20.1484 24Z" fill="#1D85DB"/>
<path d="M20.1484 23.1073H3.14844C1.49844 23.1073 0.148438 21.7301 0.148438 20.0468V3.06057C0.148438 1.37726 1.49844 0 3.14844 0H20.1484C21.7984 0 23.1484 1.37726 23.1484 3.06057V20.0468C23.1484 21.7301 21.7984 23.1073 20.1484 23.1073Z" fill="#459DF5"/>
<path d="M6.44824 19.6387V16.8842C6.44824 16.3486 6.02324 15.915 5.49824 15.915H4.52324C3.99824 15.915 3.57324 16.3486 3.57324 16.8842V19.6387C3.57324 20.1743 3.99824 20.6079 4.52324 20.6079H5.49824C6.02324 20.6079 6.44824 20.1743 6.44824 19.6387Z" fill="#BDE7FF"/>
<path d="M6.09766 19.5367V16.8077C6.09766 16.2721 5.67266 15.8385 5.14766 15.8385H4.17266C3.64766 15.8385 3.22266 16.2721 3.22266 16.8077V19.5112C3.22266 20.0468 3.64766 20.4804 4.17266 20.4804H5.14766C5.67266 20.4804 6.09766 20.0723 6.09766 19.5367Z" fill="white"/>
<path d="M13.249 19.6387V14.8438C13.249 14.3082 12.824 13.8746 12.299 13.8746H11.324C10.799 13.8746 10.374 14.3082 10.374 14.8438V19.6387C10.374 20.1743 10.799 20.6079 11.324 20.6079H12.299C12.824 20.6079 13.249 20.1743 13.249 19.6387Z" fill="#BDE7FF"/>
<path d="M12.8984 19.4857V14.7418C12.8984 14.2062 12.4734 13.7726 11.9484 13.7726H10.9734C10.4484 13.7726 10.0234 14.2062 10.0234 14.7418V19.4857C10.0234 20.0213 10.4484 20.4548 10.9734 20.4548H11.9734C12.4984 20.4293 12.8984 20.0213 12.8984 19.4857Z" fill="white"/>
<path d="M20.0488 19.6385V12.8797C20.0488 12.3441 19.6238 11.9105 19.0988 11.9105H18.1238C17.5988 11.9105 17.1738 12.3441 17.1738 12.8797V19.6385C17.1738 20.1741 17.5988 20.6077 18.1238 20.6077H19.0988C19.6238 20.6077 20.0488 20.1741 20.0488 19.6385Z" fill="#BDE7FF"/>
<path d="M19.7236 19.4346V12.7269C19.7236 12.1913 19.2986 11.7577 18.7736 11.7577H17.7986C17.2736 11.7577 16.8486 12.1913 16.8486 12.7269V19.4346C16.8486 19.9702 17.2736 20.4038 17.7986 20.4038H18.7736C19.2986 20.3783 19.7236 19.9702 19.7236 19.4346Z" fill="white"/>
<path d="M9.32321 7.85549L3.67321 10.9926C3.47321 11.0946 3.24821 11.0436 3.12321 10.8396L2.72321 10.2019C2.59821 9.99789 2.64821 9.71734 2.87321 9.58982L8.54821 6.45273C8.74821 6.35071 8.97321 6.40172 9.09821 6.60576L9.49821 7.24338C9.62321 7.47292 9.54821 7.75347 9.32321 7.85549ZM18.9482 6.60576L12.4232 10.2019C12.2232 10.304 11.9982 10.2529 11.8732 10.0489L11.4732 9.43679C11.3482 9.23275 11.3982 8.9522 11.6232 8.82467L18.1482 5.2285C18.3482 5.12648 18.5732 5.17749 18.6982 5.38153L19.0982 6.01915C19.2482 6.19768 19.1732 6.47823 18.9482 6.60576Z" fill="#BDE7FF"/>
<path d="M11.9484 10.253L7.79835 8.05956C7.57335 7.93203 7.49835 7.65148 7.64835 7.44744L8.04835 6.80982C8.17335 6.63129 8.39835 6.55477 8.59835 6.65679L12.7484 8.8502C12.9734 8.97773 13.0484 9.25828 12.8984 9.46232L12.4984 10.0999C12.3984 10.304 12.1484 10.355 11.9484 10.253ZM18.5734 6.01917L20.6484 4.08081C20.8234 4.10632 20.9734 4.28485 20.9484 4.46338L20.3734 8.36561" fill="#BDE7FF"/>
<path d="M16.8988 3.21362L20.4738 3.72372C20.6488 3.74922 20.7488 3.90225 20.7238 4.05528L20.2238 7.70247M9.0988 7.57494L3.3988 10.6865C3.2238 10.7885 2.9738 10.712 2.8488 10.5335L2.4488 9.89588C2.3238 9.69184 2.3738 9.41129 2.5988 9.28376L8.2738 6.19768C8.4738 6.09566 8.7238 6.14667 8.8238 6.35071L9.2238 6.98833C9.3738 7.16686 9.3238 7.44742 9.0988 7.57494Z" fill="white"/>
<path d="M11.9483 9.71733L7.8983 7.60044C7.6733 7.47291 7.5983 7.19236 7.7233 6.98832L8.1233 6.3507C8.2483 6.17217 8.4733 6.09565 8.6733 6.19767L12.7233 8.31457C12.9483 8.44209 13.0233 8.72265 12.8983 8.92668L12.4983 9.5643C12.3733 9.74284 12.1233 9.81935 11.9483 9.71733Z" fill="white"/>
<path d="M18.9738 6.14653L12.4238 9.6917C12.2238 9.79371 11.9738 9.7427 11.8488 9.56417L11.4488 8.92655C11.3238 8.72251 11.3738 8.44196 11.5988 8.31444L18.1488 4.74377C18.3488 4.64175 18.5988 4.69276 18.7238 4.87129L19.1238 5.50891C19.2488 5.73845 19.1988 6.01901 18.9738 6.14653Z" fill="white"/>
</svg>
