<?xml version="1.0" encoding="utf-8"?>
<!-- Generator: Adobe Illustrator 26.2.1, SVG Export Plug-In . SVG Version: 6.00 Build 0)  -->
<svg version="1.1" id="hk" xmlns="http://www.w3.org/2000/svg" xmlns:xlink="http://www.w3.org/1999/xlink" x="0px" y="0px"
	 viewBox="0 0 50.6 50.6" style="enable-background:new 0 0 50.6 50.6;" xml:space="preserve">
<style type="text/css">
	.st0{fill:#EE1C25;}
	.st1{fill:#FFFFFF;}
</style>
<g>
	<circle class="st0" cx="25.3" cy="25.3" r="25.3"/>
	<path class="st1" d="M27.7,10.8c-0.5-1.5,0.4-3.2,1.9-3.7C25.3,6.5,21,8.9,19.4,13c-1.9,4.8,0.4,10.3,5.2,12.2
		c-3.2-2.3-4-6.7-1.7-10c0,0,0.1,0.1,0.1,0.1c-2.2,3.2-1.4,7.5,1.8,9.8c-0.4-0.4-0.8-0.9-1-1.4c-0.9-2,0.1-4.4,2.1-5.3
		c0.3-0.1,0.5-0.2,0.7-0.4c2.2-1.4,2.8-4.3,1.4-6.5C27.9,11.3,27.8,11.1,27.7,10.8z M24.3,14.7l-0.6,1l-0.1-1.2l-1.2-0.3l1.1-0.5
		l-0.1-1.2l0.8,0.9l1.1-0.5l-0.6,1l0.8,0.9L24.3,14.7z"/>
	<g>
		<path class="st1" d="M35.2,16.1c-5.2-0.3-9.7,3.6-10,8.8c1.2-3.7,5.2-5.8,9-4.7c0,0,0,0.1-0.1,0.1c-3.7-1.1-7.6,1-8.8,4.7
			c0.2-0.5,0.6-1,1-1.4c1.7-1.5,4.2-1.3,5.7,0.4c0.2,0.2,0.4,0.4,0.6,0.6c2,1.6,5,1.3,6.6-0.7c0.2-0.2,0.4-0.4,0.6-0.5
			c1.3-0.9,3.1-0.6,4.1,0.7C43.1,19.7,39.5,16.4,35.2,16.1z M35.8,21.5l-0.6,1l-0.1-1.2l-1.2-0.3l1.1-0.5l-0.1-1.2l0.8,0.9l1.1-0.5
			l-0.6,1l0.8,0.9L35.8,21.5z"/>
		<path class="st1" d="M25.4,25.8c1.2,3.7-0.8,7.8-4.5,9.1c0-0.1,0-0.1,0-0.2c3.6-1.3,5.5-5.3,4.3-9c0.1,0.6,0.1,1.2,0,1.7
			c-0.5,2.2-2.7,3.5-4.8,3c-0.3-0.1-0.5-0.1-0.8-0.1c-2.6-0.1-4.8,1.9-4.9,4.5c0,0.3-0.1,0.5-0.1,0.8c-0.5,1.5-2.1,2.4-3.7,1.9
			c3.1,3.1,7.9,3.6,11.7,1.3C26.8,36,28.2,30.2,25.4,25.8z M19.5,35.7l-0.6,1l-0.1-1.2l-1.2-0.3l1.1-0.5l-0.1-1.2l0.8,0.9l1.1-0.5
			l-0.6,1l0.8,0.9L19.5,35.7z"/>
		<path class="st1" d="M37,32.1c-1.3-5-6.4-8.1-11.4-6.8c3.9,0,7.2,3.1,7.3,7.1c-0.1,0-0.1,0-0.2,0c-0.1-3.9-3.3-6.9-7.2-6.9
			c0.6,0.1,1.2,0.3,1.7,0.6c1.9,1.1,2.5,3.6,1.4,5.5c-0.1,0.2-0.3,0.5-0.4,0.7c-0.9,2.4,0.3,5.2,2.7,6.1c0.2,0.1,0.5,0.2,0.7,0.4
			c1.3,1,1.6,2.8,0.6,4.1C36.1,40.8,38.1,36.3,37,32.1z M32.8,34.5l-0.6,1l-0.1-1.2l-1.2-0.3l1.1-0.5l-0.1-1.2l0.8,0.9l1.1-0.5
			l-0.6,1l0.8,0.9L32.8,34.5z"/>
		<path class="st1" d="M14.8,24.3c0,0,0.1,0,0.1-0.1c2.4,3,6.8,3.6,9.9,1.3c-0.5,0.3-1.1,0.5-1.7,0.5c-2.2,0.2-4.2-1.5-4.4-3.7
			c0-0.3-0.1-0.5-0.1-0.8c-0.7-2.5-3.3-4-5.8-3.3c-0.2,0.1-0.5,0.1-0.8,0.1c-1.6,0-2.9-1.3-2.9-2.9c-2,3.9-1,8.7,2.4,11.5
			c4,3.3,9.9,2.8,13.3-1.2C21.6,28.1,17.2,27.5,14.8,24.3z M13.7,24.5l-0.1-1.2L12.4,23l1.1-0.5l-0.1-1.2l0.8,0.9l1.1-0.5l-0.6,1
			l0.8,0.9l-1.2-0.3L13.7,24.5z"/>
	</g>
</g>
</svg>
