<?xml version="1.0" encoding="utf-8"?>
<!-- Generator: Adobe Illustrator 20.0.0, SVG Export Plug-In . SVG Version: 6.00 Build 0)  -->
<svg version="1.1" id="Layer_1" xmlns="http://www.w3.org/2000/svg" xmlns:xlink="http://www.w3.org/1999/xlink" x="0px" y="0px"
	 viewBox="0 0 64 42" style="enable-background:new 0 0 64 42;" xml:space="preserve">
<style type="text/css">
	.st0{fill:#FFFFFF;}
	.st1{fill:#CE1126;}
	.st2{fill:#003F87;}
</style>
<path id="Rounded_Rectangle_7_copy" class="st0" d="M5.8,0h52.3C61.4,0,64,2.6,64,5.7v30.6c0,3.2-2.6,5.7-5.8,5.7H5.8
	C2.6,42,0,39.4,0,36.3V5.7C0,2.6,2.6,0,5.8,0z"/>
<g>
	<rect x="9.9" y="9" transform="matrix(0.5547 -0.832 0.832 0.5547 -1.3724 17.215)" width="10.9" height="1.8"/>
	<rect x="12.2" y="10.5" transform="matrix(0.5547 -0.8321 0.8321 0.5547 -1.6752 19.7571)" width="10.9" height="1.8"/>
	<rect x="7.7" y="7.5" transform="matrix(0.5547 -0.832 0.832 0.5547 -1.1619 14.6662)" width="10.9" height="1.8"/>
</g>
<g>
	<rect x="50" y="30.2" transform="matrix(0.5547 -0.832 0.832 0.5547 -2.5031 57.5077)" width="5" height="1.8"/>
	<rect x="44.5" y="33.6" transform="matrix(0.5547 -0.832 0.832 0.5547 -7.7612 54.4279)" width="5" height="1.8"/>
	<rect x="47.7" y="28.7" transform="matrix(0.5547 -0.832 0.832 0.5547 -2.2913 54.9571)" width="5" height="1.8"/>
	<rect x="42.2" y="32.1" transform="matrix(0.5547 -0.832 0.832 0.5547 -7.5504 51.8785)" width="5" height="1.8"/>
	<rect x="46.7" y="35.1" transform="matrix(0.5547 -0.8321 0.8321 0.5547 -8.0596 56.9726)" width="5" height="1.8"/>
	<rect x="45.5" y="27.2" transform="matrix(0.5547 -0.8321 0.8321 0.5547 -1.9813 52.4218)" width="5" height="1.8"/>
</g>
<g>
	<ellipse transform="matrix(0.5547 -0.8321 0.8321 0.5547 -3.2213 35.978)" class="st1" cx="32" cy="21" rx="10.9" ry="10.9"/>
	<path class="st2" d="M23,15c-1.7,2.5-1,5.9,1.5,7.5c2.5,1.7,5.9,1,7.5-1.5c1.7-2.5,5-3.2,7.5-1.5s3.2,5,1.5,7.5c-3.3,5-10,6.4-15,3
		S19.6,20,23,15"/>
</g>
<g>
	<rect x="51.6" y="8.4" transform="matrix(0.832 -0.5547 0.5547 0.832 2.7795 30.9529)" width="1.8" height="5"/>
	<rect x="47.1" y="11.4" transform="matrix(0.8321 -0.5547 0.5547 0.8321 0.3627 28.9519)" width="1.8" height="5"/>
	<rect x="43.8" y="6.5" transform="matrix(0.832 -0.5547 0.5547 0.832 2.5178 26.3047)" width="1.8" height="5"/>
	<rect x="48.3" y="3.5" transform="matrix(0.8321 -0.5547 0.5547 0.8321 4.9336 28.3058)" width="1.8" height="5"/>
	<polygon points="49.8,10.2 48.8,8.7 48.8,8.7 46.3,4.9 44.8,5.9 47.3,9.7 47.3,9.7 48.1,10.8 48.1,10.8 50.8,15 52.4,14 	"/>
</g>
<g>
	<polygon points="16.9,31.1 17.2,31.4 19.9,35.6 21.4,34.6 15.4,25.5 13.9,26.5 	"/>
	<rect x="16.1" y="32" transform="matrix(0.8321 -0.5547 0.5547 0.8321 -16.2969 15.231)" width="1.8" height="5"/>
	<polygon points="14.2,33.4 13.7,32.7 10.9,28.5 9.4,29.5 15.4,38.6 16.9,37.6 	"/>
	<rect x="12.9" y="27.1" transform="matrix(0.832 -0.5547 0.5547 0.832 -14.0972 12.6208)" width="1.8" height="5"/>
</g>
</svg>
