<svg xmlns="http://www.w3.org/2000/svg" xmlns:xlink="http://www.w3.org/1999/xlink" width="37" height="22" viewBox="0 0 37 22">
  <defs>
    <clipPath id="clip-path">
      <rect id="Rectangle_18" data-name="Rectangle 18" width="37" height="22" rx="3" transform="translate(0.164 0)" fill="#fff"/>
    </clipPath>
  </defs>
  <g id="Mask_Group_3" data-name="Mask Group 3" transform="translate(-0.164 0)" opacity="0.998" clip-path="url(#clip-path)">
    <g id="flag_myr" transform="translate(0.448 -0.293)">
      <g id="Group_31" data-name="Group 31">
        <path id="Path_26" data-name="Path 26" d="M0,0H44.089V22.044H0Z" fill="#fff"/>
        <path id="Path_27" data-name="Path 27" d="M2.071,1.036H44.586m0,3.149H2.071m0,3.149H44.586m0,3.149H2.071" transform="translate(-0.497 -0.248)" fill="none" stroke="#c00" stroke-width="2.071"/>
        <path id="Path_28" data-name="Path 28" d="M0,0H22.044V13.384H0Z" fill="#006"/>
        <path id="Path_29" data-name="Path 29" d="M0,17.607H44.089m0,3.149H0m0,3.149H44.089" transform="translate(0 -4.223)" fill="none" stroke="#c00" stroke-width="2.071"/>
      </g>
      <path id="Path_30" data-name="Path 30" d="M15.145,2.859l.351,2.4,1.358-2.011-.728,2.316,2.1-1.224-1.66,1.771,2.421-.194L16.719,6.8l2.263.876-2.421-.194,1.66,1.771-2.1-1.224.728,2.316L15.5,8.33l-.351,2.4-.351-2.4-1.358,2.011.728-2.316-2.1,1.224,1.66-1.771-2.421.194L13.57,6.8l-2.263-.876,2.421.194-1.66-1.771,2.1,1.224-.728-2.316L14.794,5.26Zm-1.968.1a4.2,4.2,0,1,0,0,7.676,4.724,4.724,0,1,1,0-7.676Z" transform="translate(-1.367 -0.497)" fill="#fc0"/>
    </g>
  </g>
</svg>
